<?xml version="1.0" encoding="UTF-8"?>
<!--Generator: Apple Native CoreSVG 175.5-->
<!DOCTYPE svg
PUBLIC "-//W3C//DTD SVG 1.1//EN"
       "http://www.w3.org/Graphics/SVG/1.1/DTD/svg11.dtd">
<svg version="1.1" xmlns="http://www.w3.org/2000/svg" xmlns:xlink="http://www.w3.org/1999/xlink" width="3300" height="2200">
 <!--glyph: "uni1014FC.medium", point size: 100.0, font version: "18.0d9e1", template writer version: "84"-->
 <style>.multicolor-0:tintColor {fill:#007AFF}
.multicolor-1:tintColor {fill:#007AFF;-sfsymbols-clear-behind:true}

.hierarchical-0:secondary {fill:#4D4D4D}
.hierarchical-1:primary {fill:#212121;-sfsymbols-clear-behind:true}

.SFSymbolsPreview007AFF {fill:#007AFF;opacity:1.0}
</style>
 <g id="Notes">
  <rect height="2200" id="artboard" style="fill:white;opacity:1" width="3300" x="0" y="0"/>
  <line style="fill:none;stroke:black;opacity:1;stroke-width:0.5;" x1="263" x2="3036" y1="292" y2="292"/>
  <text style="stroke:none;fill:black;font-family:sans-serif;font-size:13;font-weight:bold;" transform="matrix(1 0 0 1 263 322)">Weight/Scale Variations</text>
  <text style="stroke:none;fill:black;font-family:sans-serif;font-size:13;text-anchor:middle;" transform="matrix(1 0 0 1 559.711 322)">Ultralight</text>
  <text style="stroke:none;fill:black;font-family:sans-serif;font-size:13;text-anchor:middle;" transform="matrix(1 0 0 1 856.422 322)">Thin</text>
  <text style="stroke:none;fill:black;font-family:sans-serif;font-size:13;text-anchor:middle;" transform="matrix(1 0 0 1 1153.13 322)">Light</text>
  <text style="stroke:none;fill:black;font-family:sans-serif;font-size:13;text-anchor:middle;" transform="matrix(1 0 0 1 1449.84 322)">Regular</text>
  <text style="stroke:none;fill:black;font-family:sans-serif;font-size:13;text-anchor:middle;" transform="matrix(1 0 0 1 1746.56 322)">Medium</text>
  <text style="stroke:none;fill:black;font-family:sans-serif;font-size:13;text-anchor:middle;" transform="matrix(1 0 0 1 2043.27 322)">Semibold</text>
  <text style="stroke:none;fill:black;font-family:sans-serif;font-size:13;text-anchor:middle;" transform="matrix(1 0 0 1 2339.98 322)">Bold</text>
  <text style="stroke:none;fill:black;font-family:sans-serif;font-size:13;text-anchor:middle;" transform="matrix(1 0 0 1 2636.69 322)">Heavy</text>
  <text style="stroke:none;fill:black;font-family:sans-serif;font-size:13;text-anchor:middle;" transform="matrix(1 0 0 1 2933.4 322)">Black</text>
  <line style="fill:none;stroke:black;opacity:1;stroke-width:0.5;" x1="263" x2="3036" y1="1903" y2="1903"/>
  <g transform="matrix(1 0 0 1 263 1933)">
   <path d="M9.24805 0.830078Q10.8691 0.830078 12.2949 0.214844Q13.7207-0.400391 14.8096-1.49414Q15.8984-2.58789 16.5186-4.01367Q17.1387-5.43945 17.1387-7.05078Q17.1387-8.66211 16.5186-10.0879Q15.8984-11.5137 14.8047-12.6074Q13.7109-13.7012 12.2852-14.3164Q10.8594-14.9316 9.23828-14.9316Q7.62695-14.9316 6.20117-14.3164Q4.77539-13.7012 3.69141-12.6074Q2.60742-11.5137 1.9873-10.0879Q1.36719-8.66211 1.36719-7.05078Q1.36719-5.43945 1.9873-4.01367Q2.60742-2.58789 3.69629-1.49414Q4.78516-0.400391 6.21094 0.214844Q7.63672 0.830078 9.24805 0.830078ZM9.24805-0.654297Q7.91992-0.654297 6.7627-1.14746Q5.60547-1.64062 4.73145-2.51953Q3.85742-3.39844 3.36426-4.56055Q2.87109-5.72266 2.87109-7.05078Q2.87109-8.37891 3.35938-9.54102Q3.84766-10.7031 4.72168-11.582Q5.5957-12.4609 6.75293-12.9541Q7.91016-13.4473 9.23828-13.4473Q10.5762-13.4473 11.7383-12.9541Q12.9004-12.4609 13.7793-11.582Q14.6582-10.7031 15.1514-9.54102Q15.6445-8.37891 15.6445-7.05078Q15.6445-5.72266 15.1514-4.56055Q14.6582-3.39844 13.7793-2.51953Q12.9004-1.64062 11.7432-1.14746Q10.5859-0.654297 9.24805-0.654297ZM5.6543-7.05078Q5.6543-6.72852 5.85938-6.52832Q6.06445-6.32812 6.40625-6.32812L8.51562-6.32812L8.51562-4.20898Q8.51562-3.88672 8.71094-3.67676Q8.90625-3.4668 9.23828-3.4668Q9.56055-3.4668 9.77051-3.67676Q9.98047-3.88672 9.98047-4.20898L9.98047-6.32812L12.0898-6.32812Q12.4219-6.32812 12.627-6.52832Q12.832-6.72852 12.832-7.05078Q12.832-7.38281 12.627-7.58789Q12.4219-7.79297 12.0898-7.79297L9.98047-7.79297L9.98047-9.90234Q9.98047-10.2344 9.77051-10.4443Q9.56055-10.6543 9.23828-10.6543Q8.90625-10.6543 8.71094-10.4443Q8.51562-10.2344 8.51562-9.90234L8.51562-7.79297L6.40625-7.79297Q6.06445-7.79297 5.85938-7.58789Q5.6543-7.38281 5.6543-7.05078Z"/>
  </g>
  <g transform="matrix(1 0 0 1 281.867 1933)">
   <path d="M11.709 2.91016Q13.75 2.91016 15.5518 2.12891Q17.3535 1.34766 18.7305-0.0292969Q20.1074-1.40625 20.8887-3.20801Q21.6699-5.00977 21.6699-7.05078Q21.6699-9.0918 20.8887-10.8936Q20.1074-12.6953 18.7305-14.0723Q17.3535-15.4492 15.5469-16.2305Q13.7402-17.0117 11.6992-17.0117Q9.6582-17.0117 7.85645-16.2305Q6.05469-15.4492 4.68262-14.0723Q3.31055-12.6953 2.5293-10.8936Q1.74805-9.0918 1.74805-7.05078Q1.74805-5.00977 2.5293-3.20801Q3.31055-1.40625 4.6875-0.0292969Q6.06445 1.34766 7.86621 2.12891Q9.66797 2.91016 11.709 2.91016ZM11.709 1.25Q9.98047 1.25 8.47656 0.605469Q6.97266-0.0390625 5.83496-1.17676Q4.69727-2.31445 4.05762-3.81836Q3.41797-5.32227 3.41797-7.05078Q3.41797-8.7793 4.05762-10.2832Q4.69727-11.7871 5.83008-12.9297Q6.96289-14.0723 8.4668-14.7119Q9.9707-15.3516 11.6992-15.3516Q13.4277-15.3516 14.9365-14.7119Q16.4453-14.0723 17.583-12.9297Q18.7207-11.7871 19.3652-10.2832Q20.0098-8.7793 20.0098-7.05078Q20.0098-5.32227 19.3701-3.81836Q18.7305-2.31445 17.5879-1.17676Q16.4453-0.0390625 14.9414 0.605469Q13.4375 1.25 11.709 1.25ZM7.17773-7.05078Q7.17773-6.69922 7.41211-6.47461Q7.64648-6.25 8.01758-6.25L10.8887-6.25L10.8887-3.36914Q10.8887-2.99805 11.1133-2.76855Q11.3379-2.53906 11.6895-2.53906Q12.0605-2.53906 12.29-2.76855Q12.5195-2.99805 12.5195-3.36914L12.5195-6.25L15.4004-6.25Q15.7715-6.25 16.001-6.47461Q16.2305-6.69922 16.2305-7.05078Q16.2305-7.42188 16.001-7.65137Q15.7715-7.88086 15.4004-7.88086L12.5195-7.88086L12.5195-10.752Q12.5195-11.1328 12.29-11.3623Q12.0605-11.5918 11.6895-11.5918Q11.3379-11.5918 11.1133-11.3574Q10.8887-11.123 10.8887-10.752L10.8887-7.88086L8.01758-7.88086Q7.63672-7.88086 7.40723-7.65137Q7.17773-7.42188 7.17773-7.05078Z"/>
  </g>
  <g transform="matrix(1 0 0 1 305.646 1933)">
   <path d="M14.9707 5.66406Q17.0605 5.66406 18.96 5.01465Q20.8594 4.36523 22.4512 3.19336Q24.043 2.02148 25.2197 0.429688Q26.3965-1.16211 27.0459-3.06641Q27.6953-4.9707 27.6953-7.05078Q27.6953-9.14062 27.0459-11.04Q26.3965-12.9395 25.2197-14.5312Q24.043-16.123 22.4512-17.2998Q20.8594-18.4766 18.9551-19.126Q17.0508-19.7754 14.9609-19.7754Q12.8711-19.7754 10.9717-19.126Q9.07227-18.4766 7.48535-17.2998Q5.89844-16.123 4.72168-14.5312Q3.54492-12.9395 2.90039-11.04Q2.25586-9.14062 2.25586-7.05078Q2.25586-4.9707 2.90527-3.06641Q3.55469-1.16211 4.72656 0.429688Q5.89844 2.02148 7.49023 3.19336Q9.08203 4.36523 10.9814 5.01465Q12.8809 5.66406 14.9707 5.66406ZM14.9707 3.84766Q13.1641 3.84766 11.5283 3.2959Q9.89258 2.74414 8.53516 1.74805Q7.17773 0.751953 6.17676-0.610352Q5.17578-1.97266 4.62891-3.6084Q4.08203-5.24414 4.08203-7.05078Q4.08203-8.86719 4.62891-10.5029Q5.17578-12.1387 6.17188-13.501Q7.16797-14.8633 8.52539-15.8594Q9.88281-16.8555 11.5186-17.4023Q13.1543-17.9492 14.9609-17.9492Q16.7773-17.9492 18.4131-17.4023Q20.0488-16.8555 21.4111-15.8594Q22.7734-14.8633 23.7744-13.501Q24.7754-12.1387 25.3223-10.5029Q25.8691-8.86719 25.8691-7.05078Q25.8691-5.24414 25.3223-3.6084Q24.7754-1.97266 23.7793-0.610352Q22.7832 0.751953 21.4209 1.74805Q20.0586 2.74414 18.4229 3.2959Q16.7871 3.84766 14.9707 3.84766ZM9.19922-7.05078Q9.19922-6.66992 9.45801-6.4209Q9.7168-6.17188 10.1172-6.17188L14.0625-6.17188L14.0625-2.2168Q14.0625-1.81641 14.3115-1.55762Q14.5605-1.29883 14.9512-1.29883Q15.3516-1.29883 15.6104-1.55273Q15.8691-1.80664 15.8691-2.2168L15.8691-6.17188L19.8242-6.17188Q20.2246-6.17188 20.4785-6.4209Q20.7324-6.66992 20.7324-7.05078Q20.7324-7.46094 20.4785-7.71484Q20.2246-7.96875 19.8242-7.96875L15.8691-7.96875L15.8691-11.9141Q15.8691-12.3242 15.6104-12.583Q15.3516-12.8418 14.9512-12.8418Q14.5605-12.8418 14.3115-12.583Q14.0625-12.3242 14.0625-11.9141L14.0625-7.96875L10.1172-7.96875Q9.70703-7.96875 9.45312-7.71484Q9.19922-7.46094 9.19922-7.05078Z"/>
  </g>
  <text style="stroke:none;fill:black;font-family:sans-serif;font-size:13;font-weight:bold;" transform="matrix(1 0 0 1 263 1953)">Design Variations</text>
  <text style="stroke:none;fill:black;font-family:sans-serif;font-size:13;" transform="matrix(1 0 0 1 263 1971)">Symbols are supported in up to nine weights and three scales.</text>
  <text style="stroke:none;fill:black;font-family:sans-serif;font-size:13;" transform="matrix(1 0 0 1 263 1989)">For optimal layout with text and other symbols, vertically align</text>
  <text style="stroke:none;fill:black;font-family:sans-serif;font-size:13;" transform="matrix(1 0 0 1 263 2007)">symbols with the adjacent text.</text>
  <line style="fill:none;stroke:#00AEEF;stroke-width:0.5;opacity:1.0;" x1="776" x2="776" y1="1919" y2="1933"/>
  <g transform="matrix(1 0 0 1 776 1933)">
   <path d="M3.31055 0.15625Q3.70117 0.15625 3.91602-0.00976562Q4.13086-0.175781 4.26758-0.585938L5.52734-4.0332L11.2891-4.0332L12.5488-0.585938Q12.6855-0.175781 12.9004-0.00976562Q13.1152 0.15625 13.4961 0.15625Q13.8867 0.15625 14.1162-0.0585938Q14.3457-0.273438 14.3457-0.644531Q14.3457-0.869141 14.2383-1.17188L9.6582-13.3691Q9.48242-13.8184 9.17969-14.043Q8.87695-14.2676 8.4082-14.2676Q7.5-14.2676 7.17773-13.3789L2.59766-1.16211Q2.49023-0.859375 2.49023-0.634766Q2.49023-0.263672 2.70996-0.0537109Q2.92969 0.15625 3.31055 0.15625ZM6.00586-5.51758L8.37891-12.0898L8.42773-12.0898L10.8008-5.51758Z"/>
  </g>
  <line style="fill:none;stroke:#00AEEF;stroke-width:0.5;opacity:1.0;" x1="793.197" x2="793.197" y1="1919" y2="1933"/>
  <text style="stroke:none;fill:black;font-family:sans-serif;font-size:13;font-weight:bold;" transform="matrix(1 0 0 1 776 1953)">Margins</text>
  <text style="stroke:none;fill:black;font-family:sans-serif;font-size:13;" transform="matrix(1 0 0 1 776 1971)">Leading and trailing margins on the left and right side of each symbol</text>
  <text style="stroke:none;fill:black;font-family:sans-serif;font-size:13;" transform="matrix(1 0 0 1 776 1989)">can be adjusted by modifying the x-location of the margin guidelines.</text>
  <text style="stroke:none;fill:black;font-family:sans-serif;font-size:13;" transform="matrix(1 0 0 1 776 2007)">Modifications are automatically applied proportionally to all</text>
  <text style="stroke:none;fill:black;font-family:sans-serif;font-size:13;" transform="matrix(1 0 0 1 776 2025)">scales and weights.</text>
  <g transform="matrix(1 0 0 1 1289 1933)">
   <path d="M2.8418 1.86523L4.54102 3.57422Q5.18555 4.22852 5.90332 4.17969Q6.62109 4.13086 7.31445 3.35938L18.0078-8.42773L17.041-9.4043L6.42578 2.27539Q6.16211 2.57812 5.89355 2.61719Q5.625 2.65625 5.27344 2.30469L4.10156 1.14258Q3.75 0.791016 3.79395 0.522461Q3.83789 0.253906 4.14062-0.0195312L15.6152-10.8203L14.6387-11.7871L3.04688-0.898438Q2.30469-0.214844 2.25098 0.498047Q2.19727 1.21094 2.8418 1.86523ZM9.25781-16.3281Q8.94531-16.0254 8.90625-15.6348Q8.86719-15.2441 9.04297-14.9512Q9.21875-14.6777 9.55566-14.541Q9.89258-14.4043 10.3809-14.5215Q11.4746-14.7754 12.5977-14.7314Q13.7207-14.6875 14.7949-13.9844L14.209-12.5293Q13.9551-11.9043 14.0674-11.4404Q14.1797-10.9766 14.5801-10.5664L16.875-8.25195Q17.2363-7.88086 17.5781-7.82227Q17.9199-7.76367 18.3398-7.8418L19.4043-8.03711L20.0684-7.36328L20.0293-6.80664Q20-6.43555 20.1221-6.12305Q20.2441-5.81055 20.6055-5.44922L21.3672-4.70703Q21.7285-4.3457 22.1533-4.33105Q22.5781-4.31641 22.9297-4.66797L25.8398-7.58789Q26.1914-7.93945 26.1816-8.35449Q26.1719-8.76953 25.8105-9.13086L25.0391-9.89258Q24.6875-10.2539 24.3799-10.3857Q24.0723-10.5176 23.7109-10.4883L23.1348-10.4395L22.4902-11.0742L22.7344-12.1973Q22.832-12.6172 22.6953-12.9834Q22.5586-13.3496 22.1191-13.7891L19.9219-15.9766Q18.6719-17.2168 17.2607-17.8369Q15.8496-18.457 14.4189-18.4814Q12.9883-18.5059 11.665-17.959Q10.3418-17.4121 9.25781-16.3281ZM10.752-15.957Q11.6602-16.6211 12.7002-16.9043Q13.7402-17.1875 14.8047-17.085Q15.8691-16.9824 16.8701-16.5137Q17.8711-16.0449 18.7012-15.2051L21.1328-12.793Q21.3086-12.6172 21.3525-12.4512Q21.3965-12.2852 21.3379-12.0312L21.0156-10.5469L22.5195-9.0625L23.5059-9.12109Q23.6914-9.13086 23.7891-9.09668Q23.8867-9.0625 24.0332-8.91602L24.6094-8.33984L22.168-5.89844L21.5918-6.47461Q21.4453-6.62109 21.4062-6.71875Q21.3672-6.81641 21.377-7.01172L21.4453-7.98828L19.9512-9.47266L18.4277-9.21875Q18.1836-9.16992 18.042-9.2041Q17.9004-9.23828 17.7148-9.41406L15.7129-11.416Q15.5176-11.5918 15.4932-11.7529Q15.4688-11.9141 15.5859-12.1875L16.4648-14.2773Q15.293-15.3711 13.8281-15.791Q12.3633-16.2109 10.8398-15.7617Q10.7227-15.7324 10.6885-15.8057Q10.6543-15.8789 10.752-15.957Z"/>
  </g>
  <text style="stroke:none;fill:black;font-family:sans-serif;font-size:13;font-weight:bold;" transform="matrix(1 0 0 1 1289 1953)">Exporting</text>
  <text style="stroke:none;fill:black;font-family:sans-serif;font-size:13;" transform="matrix(1 0 0 1 1289 1971)">Symbols should be outlined when exporting to ensure the</text>
  <text style="stroke:none;fill:black;font-family:sans-serif;font-size:13;" transform="matrix(1 0 0 1 1289 1989)">design is preserved when submitting to Xcode.</text>
  <text id="template-version" style="stroke:none;fill:black;font-family:sans-serif;font-size:13;text-anchor:end;" transform="matrix(1 0 0 1 3036 1933)">Template v.3.0</text>
  <text style="stroke:none;fill:black;font-family:sans-serif;font-size:13;text-anchor:end;" transform="matrix(1 0 0 1 3036 1951)">Requires Xcode 13 or greater</text>
  <text id="descriptive-name" style="stroke:none;fill:black;font-family:sans-serif;font-size:13;text-anchor:end;" transform="matrix(1 0 0 1 3036 1969)">Generated from lightbulb.2</text>
  <text style="stroke:none;fill:black;font-family:sans-serif;font-size:13;text-anchor:end;" transform="matrix(1 0 0 1 3036 1987)">Typeset at 100 points</text>
  <text style="stroke:none;fill:black;font-family:sans-serif;font-size:13;" transform="matrix(1 0 0 1 263 726)">Small</text>
  <text style="stroke:none;fill:black;font-family:sans-serif;font-size:13;" transform="matrix(1 0 0 1 263 1156)">Medium</text>
  <text style="stroke:none;fill:black;font-family:sans-serif;font-size:13;" transform="matrix(1 0 0 1 263 1586)">Large</text>
 </g>
 <g id="Guides">
  <g id="H-reference" style="fill:#27AAE1;stroke:none;" transform="matrix(1 0 0 1 339 696)">
   <path d="M0.993347 0L3.6377 0L29.3282-67.1326L30.0301-67.1326L30.0301-70.459L28.1227-70.459ZM11.6882-24.4797L46.9818-24.4797L46.2311-26.7288L12.4382-26.7288ZM55.1193 0L57.7637 0L30.6381-70.459L29.4327-70.459L29.4327-67.1326Z"/>
  </g>
  <line id="Baseline-S" style="fill:none;stroke:#27AAE1;opacity:1;stroke-width:0.5;" x1="263" x2="3036" y1="696" y2="696"/>
  <line id="Capline-S" style="fill:none;stroke:#27AAE1;opacity:1;stroke-width:0.5;" x1="263" x2="3036" y1="625.541" y2="625.541"/>
  <g id="H-reference" style="fill:#27AAE1;stroke:none;" transform="matrix(1 0 0 1 339 1126)">
   <path d="M0.993347 0L3.6377 0L29.3282-67.1326L30.0301-67.1326L30.0301-70.459L28.1227-70.459ZM11.6882-24.4797L46.9818-24.4797L46.2311-26.7288L12.4382-26.7288ZM55.1193 0L57.7637 0L30.6381-70.459L29.4327-70.459L29.4327-67.1326Z"/>
  </g>
  <line id="Baseline-M" style="fill:none;stroke:#27AAE1;opacity:1;stroke-width:0.5;" x1="263" x2="3036" y1="1126" y2="1126"/>
  <line id="Capline-M" style="fill:none;stroke:#27AAE1;opacity:1;stroke-width:0.5;" x1="263" x2="3036" y1="1055.54" y2="1055.54"/>
  <g id="H-reference" style="fill:#27AAE1;stroke:none;" transform="matrix(1 0 0 1 339 1556)">
   <path d="M0.993347 0L3.6377 0L29.3282-67.1326L30.0301-67.1326L30.0301-70.459L28.1227-70.459ZM11.6882-24.4797L46.9818-24.4797L46.2311-26.7288L12.4382-26.7288ZM55.1193 0L57.7637 0L30.6381-70.459L29.4327-70.459L29.4327-67.1326Z"/>
  </g>
  <line id="Baseline-L" style="fill:none;stroke:#27AAE1;opacity:1;stroke-width:0.5;" x1="263" x2="3036" y1="1556" y2="1556"/>
  <line id="Capline-L" style="fill:none;stroke:#27AAE1;opacity:1;stroke-width:0.5;" x1="263" x2="3036" y1="1485.54" y2="1485.54"/>
  <line id="left-margin-Ultralight-S" style="fill:none;stroke:#00AEEF;stroke-width:0.5;opacity:1.0;" x1="515.088" x2="515.088" y1="600.785" y2="720.121"/>
  <line id="right-margin-Ultralight-S" style="fill:none;stroke:#00AEEF;stroke-width:0.5;opacity:1.0;" x1="604.334" x2="604.334" y1="600.785" y2="720.121"/>
  <line id="left-margin-Regular-S" style="fill:none;stroke:#00AEEF;stroke-width:0.5;opacity:1.0;" x1="1400.11" x2="1400.11" y1="600.785" y2="720.121"/>
  <line id="right-margin-Regular-S" style="fill:none;stroke:#00AEEF;stroke-width:0.5;opacity:1.0;" x1="1499.58" x2="1499.58" y1="600.785" y2="720.121"/>
  <line id="left-margin-Black-S" style="fill:none;stroke:#00AEEF;stroke-width:0.5;opacity:1.0;" x1="2878.88" x2="2878.88" y1="600.785" y2="720.121"/>
  <line id="right-margin-Black-S" style="fill:none;stroke:#00AEEF;stroke-width:0.5;opacity:1.0;" x1="2987.92" x2="2987.92" y1="600.785" y2="720.121"/>
 </g>
 <g id="Symbols">
  <g id="Black-S" transform="matrix(1 0 0 1 2878.88 696)">
   <path class="multicolor-0:tintColor hierarchical-0:secondary SFSymbolsPreview007AFF" d="M23.4375-14.4531L42.9688-14.4531Q45.5566-14.4531 47.1924-15.918Q48.8281-17.3828 48.9746-19.9707Q49.4629-26.709 50.708-31.3721Q51.9531-36.0352 53.3447-39.6973Q54.7363-43.3594 55.6641-46.9238L47.4609-53.9062Q47.3145-51.709 46.3867-49.6826Q45.459-47.6562 44.1895-44.7266Q42.9199-41.7969 41.6748-37.0117Q40.4297-32.2266 39.6973-24.5117L26.709-24.5117Q26.0742-30.957 25.1953-35.3027Q24.3164-39.6484 23.3887-42.5537Q22.4609-45.459 21.6553-47.4609Q20.8496-49.4629 20.3613-51.0986Q19.873-52.7344 19.873-54.6387Q19.873-58.2031 21.6797-60.8154Q23.4863-63.4277 26.5381-64.8926Q29.5898-66.3574 33.2031-66.3574Q36.7188-66.3574 39.8682-65.0146Q43.0176-63.6719 45.1172-61.2549Q47.2168-58.8379 47.4609-55.5176L55.127-62.5977Q52.5879-68.8965 46.6064-72.6807Q40.625-76.4648 33.2031-76.4648Q26.8555-76.4648 21.5088-73.6572Q16.1621-70.8496 12.9639-65.918Q9.76562-60.9863 9.76562-54.6387Q9.76562-51.2207 10.4248-48.3154Q11.084-45.4102 12.085-42.6025Q13.0859-39.7949 14.1602-36.5967Q15.2344-33.3984 16.1377-29.3701Q17.041-25.3418 17.4316-19.9707Q17.5781-17.3828 19.2383-15.918Q20.8984-14.4531 23.4375-14.4531ZM22.5586-4.19922L43.8477-4.19922Q45.2148-4.19922 46.1426-5.17578Q47.0703-6.15234 47.0703-7.37305Q47.0703-8.64258 46.1426-9.59473Q45.2148-10.5469 43.8477-10.5469L22.5586-10.5469Q21.1914-10.5469 20.2637-9.59473Q19.3359-8.64258 19.3359-7.37305Q19.3359-6.15234 20.2637-5.17578Q21.1914-4.19922 22.5586-4.19922ZM33.2031 6.73828Q37.5488 6.73828 40.2832 4.80957Q43.0176 2.88086 43.1641-0.292969L23.0469-0.292969Q23.291 2.88086 26.0986 4.80957Q28.9062 6.73828 33.2031 6.73828Z"/>
   <path class="multicolor-1:tintColor hierarchical-1:primary SFSymbolsPreview007AFF" d="M73.2422-80.9082Q66.2109-80.9082 60.3027-77.7832Q54.3945-74.6582 50.8301-69.2139Q47.2656-63.7695 47.2656-56.7383Q47.2656-52.9297 47.998-49.7314Q48.7305-46.5332 49.8291-43.4082Q50.9277-40.2832 52.1484-36.7432Q53.3691-33.2031 54.3457-28.7354Q55.3223-24.2676 55.7617-18.3105Q55.957-15.4785 57.7637-13.8428Q59.5703-12.207 62.4023-12.207L84.082-12.207Q86.8652-12.207 88.6963-13.8428Q90.5273-15.4785 90.7715-18.3105Q91.2109-24.2676 92.1875-28.7354Q93.1641-33.2031 94.3604-36.7432Q95.5566-40.2832 96.6797-43.4082Q97.8027-46.5332 98.5352-49.707Q99.2676-52.8809 99.2676-56.6895Q99.2676-63.7207 95.7031-69.1895Q92.1387-74.6582 86.2305-77.7832Q80.3223-80.9082 73.2422-80.9082ZM73.2422-69.7266Q77.2949-69.7266 80.6641-68.1152Q84.0332-66.5039 86.0596-63.5986Q88.0859-60.6934 88.0859-56.7383Q88.0859-54.6387 87.5244-52.832Q86.9629-51.0254 86.084-48.8037Q85.2051-46.582 84.1553-43.3594Q83.1055-40.1367 82.1289-35.3027Q81.1523-30.4688 80.4199-23.3398L66.0645-23.3398Q65.3809-30.4688 64.4043-35.3027Q63.4277-40.1367 62.3779-43.3594Q61.3281-46.582 60.4492-48.8037Q59.5703-51.0254 59.0088-52.832Q58.4473-54.6387 58.4473-56.7383Q58.4473-60.6934 60.4736-63.5986Q62.5-66.5039 65.8691-68.1152Q69.2383-69.7266 73.2422-69.7266ZM73.2422 10.4004Q78.0273 10.4004 81.0547 8.27637Q84.082 6.15234 84.2773 2.63672L62.0117 2.63672Q62.2559 6.15234 65.3564 8.27637Q68.457 10.4004 73.2422 10.4004ZM61.4258-1.26953L85.0586-1.26953Q86.5723-1.26953 87.5977-2.34375Q88.623-3.41797 88.623-4.78516Q88.623-6.20117 87.5977-7.25098Q86.5723-8.30078 85.0586-8.30078L61.4258-8.30078Q59.9121-8.30078 58.8867-7.25098Q57.8613-6.20117 57.8613-4.78516Q57.8613-3.41797 58.8867-2.34375Q59.9121-1.26953 61.4258-1.26953Z"/>
  </g>
  <g id="Regular-S" transform="matrix(1 0 0 1 1400.11 696)">
   <path class="multicolor-0:tintColor hierarchical-0:secondary SFSymbolsPreview007AFF" d="M21.3379-14.5996L40.9668-14.5996Q42.0898-14.5996 42.6514-15.2344Q43.2129-15.8691 43.3105-16.8457Q43.7988-21.875 44.6777-25.5859Q45.5566-29.2969 46.6064-32.1289Q47.6562-34.9609 48.6816-37.3535L44.7754-44.7266Q44.0918-43.0176 43.2129-41.0156Q42.334-39.0137 41.3818-36.3037Q40.4297-33.5938 39.502-29.7852Q38.5742-25.9766 37.793-20.6543L24.5605-20.6543Q23.6328-27.1484 22.4854-31.4697Q21.3379-35.791 20.166-38.6475Q18.9941-41.5039 18.0176-43.6035Q17.041-45.7031 16.4551-47.7051Q15.8691-49.707 15.8691-52.3438Q15.8691-56.3965 17.9443-59.4971Q20.0195-62.5977 23.5107-64.3555Q27.002-66.1133 31.1523-66.1133Q33.6426-66.1133 35.9131-65.4541Q38.1836-64.7949 40.0879-63.5986Q41.9922-62.4023 43.3594-60.7422L46.1426-66.6504Q43.2617-69.2383 39.4043-70.7275Q35.5469-72.2168 31.1523-72.2168Q25.1953-72.2168 20.3369-69.5801Q15.4785-66.9434 12.6221-62.4512Q9.76562-57.959 9.76562-52.3438Q9.76562-48.6328 10.5225-45.7764Q11.2793-42.9199 12.4512-40.2588Q13.623-37.5977 14.917-34.4727Q16.2109-31.3477 17.3096-27.124Q18.4082-22.9004 19.043-16.8457Q19.0918-15.8691 19.6777-15.2344Q20.2637-14.5996 21.3379-14.5996ZM21.1426-6.93359L41.2109-6.93359Q42.1387-6.93359 42.8711-7.56836Q43.6035-8.20312 43.6035-9.22852Q43.6035-10.2051 42.8711-10.8887Q42.1387-11.5723 41.2109-11.5723L21.1426-11.5723Q20.166-11.5723 19.5068-10.8887Q18.8477-10.2051 18.8477-9.22852Q18.8477-8.25195 19.5068-7.59277Q20.166-6.93359 21.1426-6.93359ZM31.2012 2.92969Q35.0586 2.92969 37.9883 1.0498Q40.918-0.830078 40.918-3.90625L21.4844-3.90625Q21.5332-0.830078 24.4141 1.0498Q27.2949 2.92969 31.2012 2.92969Z"/>
   <path class="multicolor-1:tintColor hierarchical-1:primary SFSymbolsPreview007AFF" d="M65.0391-77.9297Q58.1543-77.9297 52.5635-74.9268Q46.9727-71.9238 43.7012-66.7725Q40.4297-61.6211 40.4297-55.1758Q40.4297-50.8789 41.3086-47.6074Q42.1875-44.3359 43.5303-41.2598Q44.873-38.1836 46.3867-34.5459Q47.9004-30.9082 49.1943-25.9521Q50.4883-20.9961 51.2207-13.8672Q51.3184-12.793 51.9043-12.1582Q52.4902-11.5234 53.5645-11.5234L76.5137-11.5234Q77.5879-11.5234 78.1738-12.1582Q78.7598-12.793 78.8574-13.8672Q79.5898-20.9961 80.8838-25.9521Q82.1777-30.9082 83.6914-34.5459Q85.2051-38.1836 86.5723-41.2598Q87.9395-44.3359 88.8184-47.6074Q89.6973-50.8789 89.6973-55.1758Q89.6973-61.6211 86.4014-66.7725Q83.1055-71.9238 77.5146-74.9268Q71.9238-77.9297 65.0391-77.9297ZM65.0391-71.5332Q69.9707-71.5332 74.1211-69.458Q78.2715-67.3828 80.7861-63.6963Q83.3008-60.0098 83.3008-55.1758Q83.3008-52.0996 82.5928-49.7314Q81.8848-47.3633 80.7373-44.8486Q79.5898-42.334 78.1982-38.916Q76.8066-35.498 75.4639-30.4688Q74.1211-25.4395 73.0957-17.9199L56.9824-17.9199Q55.9082-25.4395 54.5898-30.4688Q53.2715-35.498 51.9043-38.916Q50.5371-42.334 49.3896-44.8486Q48.2422-47.3633 47.5342-49.7314Q46.8262-52.0996 46.8262-55.1758Q46.8262-60.0098 49.3164-63.6963Q51.8066-67.3828 55.957-69.458Q60.1074-71.5332 65.0391-71.5332ZM65.0391 7.4707Q69.2871 7.4707 72.5342 5.46875Q75.7812 3.4668 75.9766 0.244141L54.1016 0.244141Q54.248 3.4668 57.4951 5.46875Q60.7422 7.4707 65.0391 7.4707ZM53.3691-3.32031L76.709-3.32031Q77.7344-3.32031 78.418-3.97949Q79.1016-4.63867 79.1016-5.66406Q79.1016-6.64062 78.418-7.32422Q77.7344-8.00781 76.709-8.00781L53.3691-8.00781Q52.3438-8.00781 51.6846-7.32422Q51.0254-6.64062 51.0254-5.66406Q51.0254-4.63867 51.6846-3.97949Q52.3438-3.32031 53.3691-3.32031Z"/>
  </g>
  <g id="Ultralight-S" transform="matrix(1 0 0 1 515.088 696)">
   <path class="multicolor-0:tintColor hierarchical-0:secondary SFSymbolsPreview007AFF" d="M19.8395-14.7362L37.7884-14.7362Q38.7299-14.7362 39.1323-15.1436Q39.5348-15.551 39.5866-16.2552Q39.8933-19.8769 40.3408-22.8386Q40.7883-25.8003 41.3841-28.2238Q41.98-30.6473 42.5964-32.7217L41.3696-36.1893Q40.8226-34.5261 40.2615-32.5695Q39.7003-30.6129 39.2021-28.2661Q38.7039-25.9193 38.2759-23.1098Q37.8479-20.3003 37.5206-16.8854L20.1561-16.8854Q19.5457-23.5153 18.5574-28.1094Q17.569-32.7034 16.4196-35.9001Q15.2702-39.0968 14.2483-41.5371Q13.2263-43.9774 12.5725-46.1838Q11.9186-48.3902 11.9186-51.0719Q11.9186-55.307 14.2208-58.8161Q16.523-62.3253 20.3773-64.4463Q24.2317-66.5672 28.8368-66.5672Q30.7816-66.5672 32.5981-66.1804Q34.4147-65.7936 36.0691-65.0288Q37.7235-64.2639 39.1365-63.2401L40.2847-65.0612Q37.9036-66.7862 34.9998-67.7532Q32.0961-68.7202 28.8368-68.7202Q23.5153-68.7202 19.2017-66.2651Q14.888-63.81 12.3268-59.7721Q9.76562-55.7343 9.76562-51.0719Q9.76562-48.0423 10.4542-45.5494Q11.1427-43.0565 12.2013-40.5087Q13.2599-37.9608 14.4176-34.7225Q15.5754-31.4842 16.5604-27.0332Q17.5453-22.5822 18.0893-16.2552Q18.1381-15.551 18.5425-15.1436Q18.9468-14.7362 19.8395-14.7362ZM20.1889-9.34067L37.5778-9.34067Q38.1424-9.34067 38.5799-9.77097Q39.0175-10.2013 39.0175-10.8177Q39.0175-11.4311 38.5799-11.8423Q38.1424-12.2536 37.5778-12.2536L20.1889-12.2536Q19.5755-12.2536 19.1662-11.8423Q18.7569-11.4311 18.7569-10.8177Q18.7569-10.2043 19.1662-9.77249Q19.5755-9.34067 20.1889-9.34067ZM28.8857-1.15738Q32.4249-1.15738 34.7416-2.76489Q37.0583-4.37241 37.1033-6.85806L20.6673-6.85806Q20.7161-4.37241 23.0064-2.76489Q25.2968-1.15738 28.8857-1.15738Z"/>
   <path class="multicolor-1:tintColor hierarchical-1:primary SFSymbolsPreview007AFF" d="M57.4104-74.115Q51.252-74.115 46.2517-71.2711Q41.2514-68.4273 38.2977-63.7753Q35.3439-59.1232 35.3439-53.7224Q35.3439-50.1976 36.132-47.3351Q36.9202-44.4725 38.1721-41.4871Q39.4241-38.5017 40.7787-34.7279Q42.1333-30.954 43.2911-25.7252Q44.4489-20.4964 45.0447-13.0951Q45.1424-12.2932 45.5467-11.9083Q45.9511-11.5234 46.9345-11.5234L67.9314-11.5234Q68.869-11.5234 69.2963-11.9083Q69.7235-12.2932 69.8212-13.0951Q70.417-20.4964 71.5519-25.7252Q72.6868-30.954 74.0417-34.7279Q75.3967-38.5017 76.6502-41.4871Q77.9037-44.4725 78.6919-47.3351Q79.48-50.1976 79.48-53.7224Q79.48-59.1232 76.5472-63.7753Q73.6145-68.4273 68.6142-71.2711Q63.6139-74.115 57.4104-74.115ZM57.4104-71.9421Q62.841-71.9421 67.3775-69.458Q71.9139-66.9739 74.6555-62.8334Q77.3972-58.6929 77.3972-53.7224Q77.3972-50.6012 76.6212-47.9832Q75.8453-45.3651 74.6525-42.5098Q73.4596-39.6545 72.1134-35.8963Q70.7672-32.1381 69.5835-26.7681Q68.3998-21.3982 67.6918-13.6971L47.1283-13.6971Q46.463-21.3982 45.2808-26.7681Q44.0987-32.1381 42.7769-35.8963Q41.4551-39.6545 40.2397-42.5098Q39.0244-45.3651 38.2706-47.9832Q37.5168-50.6012 37.5168-53.7224Q37.5168-58.6929 40.2344-62.8334Q42.952-66.9739 47.4884-69.458Q52.0248-71.9421 57.4104-71.9421ZM57.4554 3.70178Q61.4769 3.70178 64.1109 1.94969Q66.745 0.197601 66.8945-2.57111L48.0621-2.57111Q48.2086 0.197601 50.8427 1.94969Q53.4767 3.70178 57.4554 3.70178ZM47.3297-5.54504L67.627-5.54504Q68.2434-5.54504 68.6775-5.97725Q69.1116-6.40945 69.1116-7.07169Q69.1116-7.68509 68.6775-8.11882Q68.2434-8.55255 67.627-8.55255L47.3297-8.55255Q46.7133-8.55255 46.2811-8.11882Q45.8488-7.68509 45.8488-7.07169Q45.8488-6.40945 46.2811-5.97725Q46.7133-5.54504 47.3297-5.54504Z"/>
  </g>
 </g>
</svg>
